<svg width="1000" height="1000" xmlns="http://www.w3.org/2000/svg">
 <!-- Created with Method Draw - http://github.com/duopixel/Method-Draw/ -->

 <g>
  <title>background</title>
  <rect fill="#fff" id="canvas_background" height="1002" width="1002" y="-1" x="-1"/>
  <g display="none" overflow="visible" y="0" x="0" height="100%" width="100%" id="canvasGrid">
   <rect fill="url(#gridpattern)" stroke-width="0" y="0" x="0" height="100%" width="100%"/>
  </g>
 </g>
 <g>
  <title>Layer 1</title>
  <g stroke="null" id="svg_44">
   <g stroke="null" transform="matrix(18.17431698075459,0,0,18.89313712043303,-12.04769452249535,-26.96912672859449) " id="svg_42">
    <title stroke="null" transform="translate(0,0.21459725499153137) translate(-0.3321300148963928,0) translate(0,-0.4734455645084381) translate(-17.30168342590332,-2.370093584060669) translate(19.321815490722656,0) translate(0,4.475354194641113) ">background</title>
    <rect stroke="null" fill="#556080" id="svg_40" height="55" width="55" y="0.846412" x="0.688002"/>
   </g>
   <g stroke="null" transform="matrix(18.17431698075459,0,0,18.63958119673971,-12.04769452249535,-12.78173035487186) " id="svg_43">
    <title stroke="null" transform="translate(-0.11004547774791718,0) translate(0.4401819109916687,0) translate(0,-2.789764165878296) translate(0,2.789764165878296) translate(-0.33013641834259033,-0.3218958377838135) translate(0,0.21459725499153137) translate(-0.3321300148963928,0) translate(0,-0.4734455645084381) translate(-17.30168342590332,-2.370093584060669) translate(19.321815490722656,0) translate(0,4.475354194641113) ">Layer 1</title>
    <path stroke="null" id="svg_39" fill="#E7ECED" d="m20.301002,43.076516l-7.907,4.313c-0.464,0.253 -0.881,0.564 -1.269,0.903c-10.48434,14.04665 10.561,6.232 17.063,6.232c6.454,0 28.76758,7.99478 16.964,-6.144c-0.424,-0.358 -0.884,-0.68 -1.394,-0.934l-8.467,-4.233c-1.094,-0.547 -1.785,-1.665 -1.785,-2.888l0,-3.322c0.238,-0.271 0.51,-0.619 0.801,-1.03c1.154,-1.63 2.027,-3.423 2.632,-5.304c1.086,-0.335 1.886,-1.338 1.886,-2.53l0,-3.546c0,-0.78 -0.347,-1.477 -0.886,-1.965l0,-5.126c0,0 1.053,-7.977 -9.75,-7.977s-9.75,7.977 -9.75,7.977l0,5.126c-0.54,0.488 -0.886,1.185 -0.886,1.965l0,3.546c0,0.934 0.491,1.756 1.226,2.231c0.886,3.857 3.206,6.633 3.206,6.633l0,3.24c-0.0005,0.59 -0.16225,1.15675 -0.4535,1.64675c-0.29125,0.49 -0.712,0.90325 -1.2305,1.18625z"/>
    <g stroke="null" id="svg_37">
     <path stroke="null" id="svg_38" fill="#556080" d="m28.641002,1.528516c-14.633,-0.25 -26.699,11.41 -26.949,26.043c-0.142,8.297 3.556,15.754 9.444,20.713c0.385,-0.336 0.798,-0.644 1.257,-0.894l7.907,-4.313c1.037,-0.566 1.683,-1.653 1.683,-2.835l0,-3.24c0,0 -2.321,-2.776 -3.206,-6.633c-0.734,-0.475 -1.226,-1.296 -1.226,-2.231l0,-3.546c0,-0.78 0.347,-1.477 0.886,-1.965l0,-5.126c0,0 -1.053,-7.977 9.75,-7.977s9.75,7.977 9.75,7.977l0,5.126c0.54,0.488 0.886,1.185 0.886,1.965l0,3.546c0,1.192 -0.8,2.195 -1.886,2.53c-0.605,1.881 -1.478,3.674 -2.632,5.304c-0.291,0.411 -0.563,0.759 -0.801,1.03l0,3.322c0,1.223 0.691,2.342 1.785,2.888l8.467,4.233c0.508,0.254 0.967,0.575 1.39,0.932c5.71,-4.762 9.399,-11.882 9.536,-19.9c0.252,-14.633 -11.407,-26.699 -26.041,-26.949z"/>
    </g>
    <g stroke="null" id="svg_36"/>
    <g stroke="null" id="svg_35"/>
    <g stroke="null" id="svg_34"/>
    <g stroke="null" id="svg_33"/>
    <g stroke="null" id="svg_32"/>
    <g stroke="null" id="svg_31"/>
    <g stroke="null" id="svg_30"/>
    <g stroke="null" id="svg_29"/>
    <g stroke="null" id="svg_28"/>
    <g stroke="null" id="svg_27"/>
    <g stroke="null" id="svg_26"/>
    <g stroke="null" id="svg_25"/>
    <g stroke="null" id="svg_24"/>
    <g stroke="null" id="svg_23"/>
    <g stroke="null" id="svg_22"/>
   </g>
  </g>
 </g>
</svg>